<svg width="14" height="22" viewBox="0 0 14 22" fill="none" xmlns="http://www.w3.org/2000/svg">
<path fill-rule="evenodd" clip-rule="evenodd" d="M13.7503 9.50014L13.7438 9.74301L13.7503 10.0002L13.7441 10.2434L13.7503 10.5002L13.7444 10.745L13.7502 11.0002L13.5879 18.1032C13.5493 19.7884 12.2676 21.1841 10.5916 21.3656C8.20422 21.6241 5.79586 21.6241 3.40843 21.3656C1.73252 21.1841 0.450754 19.7884 0.412227 18.1032L0.249845 11.0002L0.255716 10.7434L0.249863 10.5002L0.256018 10.2444L0.249814 10.0002L0.256318 9.74411L0.249756 9.50014L0.413761 3.40223C0.416049 3.31715 0.422029 3.23296 0.43155 3.1498L0.435279 3.11464L0.438238 3.0863C0.518849 2.2622 0.975529 1.54344 1.64105 1.11211C1.69071 1.07909 1.74152 1.04764 1.79344 1.01784C1.84422 0.987793 1.89605 0.95929 1.94887 0.932405C2.27547 0.760041 2.63996 0.648322 3.02796 0.612607C5.67042 0.369365 8.32963 0.369366 10.9721 0.612607C11.3595 0.648266 11.7234 0.759685 12.0496 0.931581C12.1024 0.958427 12.1543 0.986891 12.2051 1.0169C12.2586 1.04759 12.311 1.08004 12.3622 1.11415C13.0242 1.54452 13.4788 2.25955 13.5612 3.0795L13.569 3.1538C13.5782 3.23566 13.584 3.31852 13.5863 3.40223L13.7503 9.50014ZM12.0743 3.32085L12.2313 10.1875L12.104 14.9177C12.0754 15.9811 11.2563 16.8552 10.1971 16.9527C8.0702 17.1485 5.92985 17.1485 3.80298 16.9527C2.74371 16.8552 1.92461 15.9811 1.89601 14.9177L1.7688 10.1881L1.92579 3.32085C1.92613 3.30607 1.92675 3.29136 1.92763 3.27672C1.98711 2.87444 2.22025 2.5272 2.55079 2.31633C2.67601 2.25105 2.81495 2.20776 2.96275 2.19176C5.64643 1.90113 8.35365 1.90113 11.0373 2.19176C11.1851 2.20776 11.324 2.25102 11.4491 2.31626C11.7798 2.52717 12.0131 2.87458 12.0725 3.27706C12.0733 3.29159 12.074 3.30619 12.0743 3.32085ZM7.00006 20.7002C7.82849 20.7002 8.50006 20.0286 8.50006 19.2002C8.50006 18.3717 7.82849 17.7002 7.00006 17.7002C6.17163 17.7002 5.50006 18.3717 5.50006 19.2002C5.50006 20.0286 6.17163 20.7002 7.00006 20.7002Z" fill="black"/>
</svg>
